<mxfile host="app.diagrams.net" agent="Mozilla/5.0 (Macintosh; Intel Mac OS X 10_15_7) AppleWebKit/537.36 (KHTML, like Gecko) Chrome/131.0.0.0 Safari/537.36" version="26.0.7">
  <diagram name="第 1 页" id="wdYkp_JwTAIEkWsMZ33T">
    <mxGraphModel dx="308" dy="195" grid="1" gridSize="10" guides="1" tooltips="1" connect="1" arrows="1" fold="1" page="1" pageScale="1" pageWidth="827" pageHeight="1169" math="0" shadow="0">
      <root>
        <mxCell id="0" />
        <mxCell id="1" parent="0" />
        <mxCell id="7c_En07IaH6ptwgQ4nN1-42" style="edgeStyle=orthogonalEdgeStyle;curved=1;rounded=0;orthogonalLoop=1;jettySize=auto;html=1;exitX=0.5;exitY=1;exitDx=0;exitDy=0;entryX=1;entryY=0;entryDx=0;entryDy=0;" edge="1" parent="1" source="7c_En07IaH6ptwgQ4nN1-1" target="7c_En07IaH6ptwgQ4nN1-4">
          <mxGeometry relative="1" as="geometry" />
        </mxCell>
        <mxCell id="7c_En07IaH6ptwgQ4nN1-1" value="input" style="rounded=1;whiteSpace=wrap;html=1;fontStyle=1;fontSize=14;" vertex="1" parent="1">
          <mxGeometry x="250" y="150" width="40" height="20" as="geometry" />
        </mxCell>
        <mxCell id="7c_En07IaH6ptwgQ4nN1-41" style="edgeStyle=orthogonalEdgeStyle;curved=1;rounded=0;orthogonalLoop=1;jettySize=auto;html=1;exitX=0.5;exitY=1;exitDx=0;exitDy=0;entryX=0;entryY=0;entryDx=0;entryDy=0;" edge="1" parent="1" source="7c_En07IaH6ptwgQ4nN1-2" target="7c_En07IaH6ptwgQ4nN1-4">
          <mxGeometry relative="1" as="geometry" />
        </mxCell>
        <mxCell id="7c_En07IaH6ptwgQ4nN1-2" value="gate" style="rounded=0;whiteSpace=wrap;html=1;" vertex="1" parent="1">
          <mxGeometry x="135" y="190" width="40" height="20" as="geometry" />
        </mxCell>
        <mxCell id="7c_En07IaH6ptwgQ4nN1-9" style="edgeStyle=orthogonalEdgeStyle;curved=1;rounded=0;orthogonalLoop=1;jettySize=auto;html=1;exitX=0.5;exitY=1;exitDx=0;exitDy=0;entryX=0.5;entryY=0;entryDx=0;entryDy=0;" edge="1" parent="1" source="7c_En07IaH6ptwgQ4nN1-4" target="7c_En07IaH6ptwgQ4nN1-7">
          <mxGeometry relative="1" as="geometry" />
        </mxCell>
        <mxCell id="7c_En07IaH6ptwgQ4nN1-4" value="MUL" style="ellipse;whiteSpace=wrap;html=1;" vertex="1" parent="1">
          <mxGeometry x="148.75" y="230" width="50" height="30" as="geometry" />
        </mxCell>
        <mxCell id="7c_En07IaH6ptwgQ4nN1-11" value="" style="edgeStyle=orthogonalEdgeStyle;curved=1;rounded=0;orthogonalLoop=1;jettySize=auto;html=1;" edge="1" parent="1" source="7c_En07IaH6ptwgQ4nN1-7" target="7c_En07IaH6ptwgQ4nN1-10">
          <mxGeometry relative="1" as="geometry" />
        </mxCell>
        <mxCell id="7c_En07IaH6ptwgQ4nN1-7" value="logits" style="whiteSpace=wrap;html=1;" vertex="1" parent="1">
          <mxGeometry x="147.5" y="270" width="52.5" height="20" as="geometry" />
        </mxCell>
        <mxCell id="7c_En07IaH6ptwgQ4nN1-21" style="edgeStyle=orthogonalEdgeStyle;curved=1;rounded=0;orthogonalLoop=1;jettySize=auto;html=1;exitX=0.5;exitY=1;exitDx=0;exitDy=0;entryX=0;entryY=0;entryDx=0;entryDy=0;" edge="1" parent="1" source="7c_En07IaH6ptwgQ4nN1-10" target="7c_En07IaH6ptwgQ4nN1-16">
          <mxGeometry relative="1" as="geometry" />
        </mxCell>
        <mxCell id="7c_En07IaH6ptwgQ4nN1-29" style="edgeStyle=orthogonalEdgeStyle;curved=1;rounded=0;orthogonalLoop=1;jettySize=auto;html=1;exitX=0.5;exitY=1;exitDx=0;exitDy=0;entryX=0.492;entryY=-0.075;entryDx=0;entryDy=0;entryPerimeter=0;" edge="1" parent="1" target="7c_En07IaH6ptwgQ4nN1-24">
          <mxGeometry relative="1" as="geometry">
            <mxPoint x="146.25" y="440" as="targetPoint" />
            <mxPoint x="159.99999999999994" y="340" as="sourcePoint" />
            <Array as="points">
              <mxPoint x="146" y="341" />
              <mxPoint x="146" y="391" />
              <mxPoint x="155" y="391" />
            </Array>
          </mxGeometry>
        </mxCell>
        <mxCell id="7c_En07IaH6ptwgQ4nN1-10" value="activation&lt;div&gt;&lt;span style=&quot;font-size: 6px; background-color: transparent; color: light-dark(rgb(0, 0, 0), rgb(255, 255, 255));&quot;&gt;(softmax/sigmod)&lt;/span&gt;&lt;/div&gt;" style="whiteSpace=wrap;html=1;" vertex="1" parent="1">
          <mxGeometry x="147.5" y="310" width="52.5" height="30" as="geometry" />
        </mxCell>
        <mxCell id="7c_En07IaH6ptwgQ4nN1-18" style="edgeStyle=orthogonalEdgeStyle;curved=1;rounded=0;orthogonalLoop=1;jettySize=auto;html=1;exitX=0.5;exitY=1;exitDx=0;exitDy=0;entryX=1;entryY=0;entryDx=0;entryDy=0;dashed=1;" edge="1" parent="1" source="7c_En07IaH6ptwgQ4nN1-14" target="7c_En07IaH6ptwgQ4nN1-16">
          <mxGeometry relative="1" as="geometry" />
        </mxCell>
        <mxCell id="7c_En07IaH6ptwgQ4nN1-14" value="exp_probs_b" style="whiteSpace=wrap;html=1;dashed=1;" vertex="1" parent="1">
          <mxGeometry x="210" y="270" width="80" height="20" as="geometry" />
        </mxCell>
        <mxCell id="7c_En07IaH6ptwgQ4nN1-37" style="edgeStyle=orthogonalEdgeStyle;curved=1;rounded=0;orthogonalLoop=1;jettySize=auto;html=1;exitX=0.5;exitY=1;exitDx=0;exitDy=0;entryX=0.5;entryY=0;entryDx=0;entryDy=0;" edge="1" parent="1" source="7c_En07IaH6ptwgQ4nN1-16" target="7c_En07IaH6ptwgQ4nN1-19">
          <mxGeometry relative="1" as="geometry" />
        </mxCell>
        <mxCell id="7c_En07IaH6ptwgQ4nN1-16" value="Add" style="ellipse;whiteSpace=wrap;html=1;" vertex="1" parent="1">
          <mxGeometry x="190" y="360" width="50" height="30" as="geometry" />
        </mxCell>
        <mxCell id="7c_En07IaH6ptwgQ4nN1-36" style="edgeStyle=orthogonalEdgeStyle;curved=1;rounded=0;orthogonalLoop=1;jettySize=auto;html=1;exitX=0.5;exitY=1;exitDx=0;exitDy=0;entryX=0.5;entryY=0;entryDx=0;entryDy=0;" edge="1" parent="1" source="7c_En07IaH6ptwgQ4nN1-19" target="7c_En07IaH6ptwgQ4nN1-35">
          <mxGeometry relative="1" as="geometry" />
        </mxCell>
        <mxCell id="7c_En07IaH6ptwgQ4nN1-19" value="top_K" style="ellipse;whiteSpace=wrap;html=1;" vertex="1" parent="1">
          <mxGeometry x="195" y="410" width="50" height="30" as="geometry" />
        </mxCell>
        <mxCell id="7c_En07IaH6ptwgQ4nN1-23" value="选择了概率最大的n_expert_used个数的专家" style="text;strokeColor=none;align=left;fillColor=none;html=1;verticalAlign=middle;whiteSpace=wrap;rounded=0;fontSize=6;fontColor=#FF00FF;" vertex="1" parent="1">
          <mxGeometry x="245" y="415" width="80" height="20" as="geometry" />
        </mxCell>
        <mxCell id="7c_En07IaH6ptwgQ4nN1-32" value="" style="edgeStyle=orthogonalEdgeStyle;curved=1;rounded=0;orthogonalLoop=1;jettySize=auto;html=1;" edge="1" parent="1" source="7c_En07IaH6ptwgQ4nN1-24" target="7c_En07IaH6ptwgQ4nN1-31">
          <mxGeometry relative="1" as="geometry" />
        </mxCell>
        <mxCell id="7c_En07IaH6ptwgQ4nN1-24" value="get row" style="ellipse;whiteSpace=wrap;html=1;" vertex="1" parent="1">
          <mxGeometry x="130" y="452.5" width="50" height="30" as="geometry" />
        </mxCell>
        <mxCell id="7c_En07IaH6ptwgQ4nN1-30" value="根据选择的专家获得了对应的概率，这个概率主要用于每个专家的贡献比例是不同的" style="text;strokeColor=none;align=left;fillColor=none;html=1;verticalAlign=middle;whiteSpace=wrap;rounded=0;fontSize=6;fontColor=#FF00FF;" vertex="1" parent="1">
          <mxGeometry x="70" y="450" width="60" height="30" as="geometry" />
        </mxCell>
        <mxCell id="7c_En07IaH6ptwgQ4nN1-31" value="归一化&lt;div&gt;&lt;font style=&quot;color: rgb(255, 0, 0);&quot;&gt;weights&lt;/font&gt;&lt;/div&gt;" style="ellipse;whiteSpace=wrap;html=1;fillColor=#dae8fc;strokeColor=#6c8ebf;" vertex="1" parent="1">
          <mxGeometry x="130" y="500" width="50" height="30" as="geometry" />
        </mxCell>
        <mxCell id="7c_En07IaH6ptwgQ4nN1-39" style="edgeStyle=orthogonalEdgeStyle;curved=1;rounded=0;orthogonalLoop=1;jettySize=auto;html=1;exitX=0;exitY=0.5;exitDx=0;exitDy=0;entryX=1;entryY=0.5;entryDx=0;entryDy=0;" edge="1" parent="1" source="7c_En07IaH6ptwgQ4nN1-35" target="7c_En07IaH6ptwgQ4nN1-24">
          <mxGeometry relative="1" as="geometry" />
        </mxCell>
        <mxCell id="7c_En07IaH6ptwgQ4nN1-35" value="Out_1&lt;div&gt;&lt;font style=&quot;color: rgb(255, 0, 0);&quot;&gt;selected_experts&lt;/font&gt;&lt;/div&gt;" style="whiteSpace=wrap;html=1;fillColor=#dae8fc;strokeColor=#6c8ebf;" vertex="1" parent="1">
          <mxGeometry x="200" y="455" width="100" height="25" as="geometry" />
        </mxCell>
      </root>
    </mxGraphModel>
  </diagram>
</mxfile>
